# xmcd
#
# Track frame offsets:
#	150
#	17499
#	34396
#	53309
#	71700
#	89980
#	110977
#	128246
#	146522
#	172785
#	196670
#	218351
#	238094
#	257614
#
# Disc length: 3750 seconds
#
# Revision: 0
# Processed by: cddbd v1.5.2PL0 Copyright (c) Steve Scherf et al.
# Submitted via: EasyCDDAExtractor 16.0.0.1
#
DISCID=c10ea40e
DTITLE=Adele - 21 (14 Faixas)
DYEAR=2010
DGENRE=Blues
TTITLE0=Rolling In The Deep
TTITLE1=Rumour Has It
TTITLE2=Turning Tables
TTITLE3=Don't You Remember
TTITLE4=Set Fire to the Rain
TTITLE5=He Won't Go
TTITLE6=Take It All
TTITLE7=I'll Be Waiting
TTITLE8=One and Only
TTITLE9=Love Song
TTITLE10=Someone Like You
TTITLE11=Turning Tables (live acoustic)
TTITLE12=Don't You Remember (live acoustic)
TTITLE13=Someone Like You (live acoustic)
EXTD=
EXTT0=
EXTT1=
EXTT2=
EXTT3=
EXTT4=
EXTT5=
EXTT6=
EXTT7=
EXTT8=
EXTT9=
EXTT10=
EXTT11=
EXTT12=
EXTT13=
PLAYORDER=
